HIERARCHY
ROOT joint_0
{
	OFFSET 0.000000 0.000000 0.000000
	CHANNELS 6 Xposition Yposition Zposition Zrotation Yrotation Xrotation 
	JOINT joint_1
	{
		OFFSET 0.587158 0.057678 95.682007
		CHANNELS 3 Zrotation Yrotation Xrotation
		JOINT joint_2
		{
			OFFSET -7.116699 -0.219910 87.157959
			CHANNELS 3 Zrotation Yrotation Xrotation
			JOINT joint_3
			{
				OFFSET -5.892822 -0.290222 87.151001
				CHANNELS 3 Zrotation Yrotation Xrotation
				JOINT joint_4
				{
					OFFSET 5.544678 -0.099609 123.768066
					CHANNELS 3 Zrotation Yrotation Xrotation
					JOINT joint_5
					{
						OFFSET 41.981201 4.519775 84.257935
						CHANNELS 3 Zrotation Yrotation Xrotation
						End Site
						{
							OFFSET 0.000000 0.000000 0.000000
						}
					}
				}
				JOINT joint_6
				{
					OFFSET 3.940918 -26.976501 69.308105
					CHANNELS 3 Zrotation Yrotation Xrotation
					JOINT joint_7
					{
						OFFSET 4.776123 -152.592468 -16.842041
						CHANNELS 3 Zrotation Yrotation Xrotation
						JOINT joint_8
						{
							OFFSET 54.421875 -30.424072 -248.864014
							CHANNELS 3 Zrotation Yrotation Xrotation
							JOINT joint_9
							{
								OFFSET 42.120117 -33.387878 -236.524963
								CHANNELS 3 Zrotation Yrotation Xrotation
								End Site
								{
									OFFSET 0.000000 0.000000 0.000000
								}
							}
						}
					}
				}
				JOINT joint_10
				{
					OFFSET 2.312012 26.904114 69.425049
					CHANNELS 3 Zrotation Yrotation Xrotation
					JOINT joint_11
					{
						OFFSET 0.971436 152.197815 -20.626953
						CHANNELS 3 Zrotation Yrotation Xrotation
						JOINT joint_12
						{
							OFFSET 49.954102 28.991455 -249.970093
							CHANNELS 3 Zrotation Yrotation Xrotation
							JOINT joint_13
							{
								OFFSET 48.146973 19.598389 -236.919922
								CHANNELS 3 Zrotation Yrotation Xrotation
								End Site
								{
									OFFSET 0.000000 0.000000 0.000000
								}
							}
						}
					}
				}
			}
		}
	}
	JOINT joint_14
	{
		OFFSET 16.305664 -89.442932 -108.224976
		CHANNELS 3 Zrotation Yrotation Xrotation
		JOINT joint_15
		{
			OFFSET -22.282471 13.437134 -412.904968
			CHANNELS 3 Zrotation Yrotation Xrotation
			JOINT joint_16
			{
				OFFSET -45.426025 14.484802 -445.892029
				CHANNELS 3 Zrotation Yrotation Xrotation
				JOINT joint_17
				{
					OFFSET 173.389404 -9.944031 -76.473001
					CHANNELS 3 Zrotation Yrotation Xrotation
					End Site
					{
						OFFSET 0.000000 0.000000 0.000000
					}
				}
			}
		}
	}
	JOINT joint_18
	{
		OFFSET 13.392822 89.408875 -108.653992
		CHANNELS 3 Zrotation Yrotation Xrotation
		JOINT joint_19
		{
			OFFSET -29.032959 24.483521 -411.977966
			CHANNELS 3 Zrotation Yrotation Xrotation
			JOINT joint_20
			{
				OFFSET -30.530029 28.986328 -446.453018
				CHANNELS 3 Zrotation Yrotation Xrotation
				JOINT joint_21
				{
					OFFSET 170.330078 33.400757 -76.698997
					CHANNELS 3 Zrotation Yrotation Xrotation
					End Site
					{
						OFFSET 0.000000 0.000000 0.000000
					}
				}
			}
		}
	}
}
MOTION
Frames: 16
Frame Time: 0.016667
-2721.728516 822.901184 1064.983032 -1.626854 6.517458 -0.568488 0.987273 -2.375149 -0.932589 1.109856 0.413562 0.228571 1.084091 -0.503534 -0.141992 -2.186999 -13.040920 5.763397 0.000000 0.000000 0.000000 2.312494 2.595271 2.017547 0.090304 2.868671 2.426413 1.522416 -6.565086 3.731998 0.000000 0.000000 0.000000 -2.035195 1.835508 1.253065 0.397567 2.177983 -0.331753 -1.072168 -6.335033 -2.773381 0.000000 0.000000 0.000000 -3.148763 -4.328875 -1.871207 -3.363278 -5.764427 1.025066 -2.963658 2.558345 -1.151199 0.000000 0.000000 0.000000 2.599226 -7.366963 -0.155232 2.983052 -1.429825 0.299689 3.171534 2.189345 0.996167 0.000000 0.000000 0.000000 
-2721.180176 822.916199 1064.873047 -1.463782 6.357004 -0.536801 0.940374 -2.351732 -0.871684 1.054561 0.411278 0.213972 1.030222 -0.494523 -0.133208 -2.173483 -12.994886 5.729184 0.000000 0.000000 0.000000 2.342573 2.610568 1.983183 0.079790 2.888567 2.408472 1.558658 -6.735143 3.824237 0.000000 0.000000 0.000000 -1.985819 1.872394 1.139865 0.402050 2.207588 -0.363811 -1.149077 -6.602875 -3.047655 0.000000 0.000000 0.000000 -3.191089 -4.348394 -1.865463 -3.385777 -5.306556 0.922651 -2.999565 2.385420 -1.177259 0.000000 0.000000 0.000000 2.549696 -7.186783 -0.233523 2.904885 -1.409068 0.420400 3.104181 2.208339 0.962263 0.000000 0.000000 0.000000 
-2720.631836 822.930176 1064.764038 -1.301056 6.196849 -0.504039 0.892967 -2.329715 -0.815372 0.999520 0.410134 0.202151 0.976365 -0.485786 -0.125345 -2.161014 -12.949248 5.697180 0.000000 0.000000 0.000000 2.373589 2.625822 1.950308 0.069039 2.908506 2.389907 1.594700 -6.905467 3.915929 0.000000 0.000000 0.000000 -1.936441 1.909336 1.026237 0.406677 2.237324 -0.394482 -1.225944 -6.870098 -3.321778 0.000000 0.000000 0.000000 -3.233331 -4.368987 -1.862187 -3.408272 -4.848135 0.821988 -3.036642 2.217298 -1.203546 0.000000 0.000000 0.000000 2.499871 -7.006618 -0.313420 2.826628 -1.388583 0.541571 3.036912 2.228547 0.928144 0.000000 0.000000 0.000000 
-2720.120117 822.898438 1064.661011 -1.149760 6.046596 -0.472899 0.848920 -2.314672 -0.765639 0.948737 0.407329 0.191100 0.926696 -0.477297 -0.117932 -2.147680 -12.900769 5.663364 0.000000 0.000000 0.000000 2.398419 2.636434 1.918162 0.053157 2.922711 2.343668 1.622609 -7.026782 3.995859 0.000000 0.000000 0.000000 -1.888173 1.943487 0.917580 0.411007 2.264446 -0.416608 -1.292531 -7.092455 -3.561785 0.000000 0.000000 0.000000 -3.273239 -4.388345 -1.859803 -3.429876 -4.418313 0.732682 -3.072673 2.060697 -1.228686 0.000000 0.000000 0.000000 2.453701 -6.831682 -0.380382 2.754541 -1.378951 0.643525 2.974741 2.244954 0.897048 0.000000 0.000000 0.000000 
-2719.663818 822.796631 1064.567017 -1.013786 5.909782 -0.443568 0.809860 -2.308751 -0.724952 0.904037 0.404658 0.180457 0.883144 -0.470920 -0.109814 -2.133618 -12.848114 5.627963 0.000000 0.000000 0.000000 2.410988 2.637470 1.888633 0.030195 2.925257 2.255817 1.638237 -7.074408 4.056510 0.000000 0.000000 0.000000 -1.842547 1.972484 0.816429 0.414419 2.286722 -0.429442 -1.345674 -7.254253 -3.757900 0.000000 0.000000 0.000000 -3.310473 -4.406240 -1.856789 -3.450586 -4.027375 0.656388 -3.107072 1.916764 -1.252356 0.000000 0.000000 0.000000 2.412287 -6.663553 -0.426528 2.690970 -1.384791 0.713928 2.919099 2.253919 0.870339 0.000000 0.000000 0.000000 
-2719.243164 822.648193 1064.479980 -0.888904 5.783477 -0.415997 0.774390 -2.311460 -0.689914 0.863684 0.401047 0.170398 0.843799 -0.463909 -0.103414 -2.119763 -12.792035 5.592856 0.000000 0.000000 0.000000 2.417711 2.633876 1.861022 0.002240 2.922076 2.140129 1.645907 -7.073486 4.105114 0.000000 0.000000 0.000000 -1.798741 1.998674 0.722492 0.417313 2.306445 -0.435236 -1.388554 -7.372126 -3.919500 0.000000 0.000000 0.000000 -3.345707 -4.423469 -1.853783 -3.470672 -3.664942 0.590720 -3.140192 1.782687 -1.274875 0.000000 0.000000 0.000000 2.374390 -6.501597 -0.459389 2.633386 -1.401142 0.765177 2.868315 2.258795 0.846609 0.000000 0.000000 0.000000 
-2718.843750 822.472107 1064.399048 -0.774325 5.666748 -0.390520 0.742584 -2.323985 -0.663266 0.828338 0.400178 0.165559 0.808941 -0.460644 -0.099514 -2.106778 -12.735450 5.559250 0.000000 0.000000 0.000000 2.424275 2.637284 1.830500 -0.029857 2.925915 2.009457 1.650075 -7.051210 4.149348 0.000000 0.000000 0.000000 -1.758810 2.026912 0.633066 0.421242 2.328891 -0.430138 -1.420380 -7.451436 -4.040626 0.000000 0.000000 0.000000 -3.378236 -4.440360 -1.853276 -3.489499 -3.326153 0.536997 -3.171205 1.655871 -1.296032 0.000000 0.000000 0.000000 2.339143 -6.345681 -0.488193 2.579069 -1.426470 0.814185 2.821415 2.267373 0.823885 0.000000 0.000000 0.000000 
-2718.448975 822.277710 1064.324951 -0.671421 5.562984 -0.367828 0.716171 -2.354354 -0.643491 0.799649 0.403098 0.165937 0.780072 -0.463817 -0.100110 -2.095714 -12.673965 5.528386 0.000000 0.000000 0.000000 2.430709 2.653617 1.793716 -0.067314 2.942939 1.864290 1.652497 -7.008363 4.199632 0.000000 0.000000 0.000000 -1.726626 2.060504 0.549937 0.425498 2.357838 -0.419097 -1.439179 -7.488483 -4.112889 0.000000 0.000000 0.000000 -3.407440 -4.458580 -1.859235 -3.507108 -3.012345 0.502665 -3.199290 1.533820 -1.315611 0.000000 0.000000 0.000000 2.306808 -6.194246 -0.516935 2.526811 -1.469177 0.868682 2.778749 2.285367 0.801200 0.000000 0.000000 0.000000 
-2718.074219 822.055786 1064.255981 -0.578151 5.469101 -0.347702 0.693869 -2.395926 -0.629356 0.775875 0.409206 0.168197 0.755897 -0.469406 -0.102150 -2.085655 -12.613231 5.499318 0.000000 0.000000 0.000000 2.436109 2.676897 1.754041 -0.108862 2.966856 1.704216 1.651515 -6.944758 4.245568 0.000000 0.000000 0.000000 -1.700235 2.096067 0.472620 0.430699 2.389683 -0.398453 -1.446854 -7.488369 -4.144130 0.000000 0.000000 0.000000 -3.434355 -4.476357 -1.866739 -3.523854 -2.722426 0.480103 -3.225367 1.417769 -1.333947 0.000000 0.000000 0.000000 2.276834 -6.049443 -0.541037 2.477542 -1.520468 0.921084 2.739663 2.306673 0.779463 0.000000 0.000000 0.000000 
-2717.754395 821.801880 1064.182007 -0.488067 5.373483 -0.329526 0.672402 -2.420591 -0.618983 0.753107 0.412327 0.169746 0.732845 -0.472696 -0.103370 -2.077123 -12.566868 5.475039 0.000000 0.000000 0.000000 2.441377 2.702555 1.716312 -0.149042 2.993038 1.545162 1.646977 -6.889813 4.263632 0.000000 0.000000 0.000000 -1.674047 2.128684 0.400746 0.439178 2.418964 -0.356361 -1.447404 -7.464010 -4.149688 0.000000 0.000000 0.000000 -3.460587 -4.487228 -1.866426 -3.539736 -2.448780 0.451192 -3.251227 1.307836 -1.351821 0.000000 0.000000 0.000000 2.247657 -5.916299 -0.557047 2.432358 -1.551456 0.965394 2.701770 2.316340 0.760544 0.000000 0.000000 0.000000 
-2717.510010 821.510498 1064.102051 -0.397571 5.270231 -0.313627 0.650487 -2.415544 -0.610721 0.729441 0.411068 0.165715 0.709580 -0.468753 -0.100576 -2.072026 -12.545839 5.460770 0.000000 0.000000 0.000000 2.445486 2.727860 1.682022 -0.185764 3.018537 1.391790 1.639107 -6.862940 4.240531 0.000000 0.000000 0.000000 -1.648085 2.154153 0.333499 0.452105 2.441576 -0.285934 -1.441615 -7.419389 -4.132306 0.000000 0.000000 0.000000 -3.487036 -4.485146 -1.851511 -3.554861 -2.192961 0.405020 -3.277870 1.206856 -1.369508 0.000000 0.000000 0.000000 2.218703 -5.797565 -0.562530 2.392070 -1.547854 0.998757 2.664271 2.308604 0.745220 0.000000 0.000000 0.000000 
-2717.321533 821.187073 1064.015991 -0.310395 5.165272 -0.299856 0.629534 -2.392484 -0.605854 0.706880 0.404556 0.160793 0.687568 -0.460938 -0.096812 -2.068207 -12.540075 5.450801 0.000000 0.000000 0.000000 2.449597 2.755429 1.649483 -0.221069 3.046201 1.239502 1.627658 -6.844648 4.189432 0.000000 0.000000 0.000000 -1.622884 2.176547 0.271668 0.468334 2.461557 -0.194396 -1.428625 -7.351632 -4.088707 0.000000 0.000000 0.000000 -3.512964 -4.476539 -1.828469 -3.569249 -1.952935 0.352404 -3.304326 1.111006 -1.386806 0.000000 0.000000 0.000000 2.190678 -5.690649 -0.559974 2.355962 -1.523850 1.024308 2.628047 2.289190 0.732761 0.000000 0.000000 0.000000 
-2717.153809 820.844116 1063.926025 -0.230696 5.067156 -0.287576 0.612737 -2.375381 -0.602871 0.688972 0.402115 0.158334 0.669895 -0.455735 -0.095228 -2.062878 -12.535278 5.437189 0.000000 0.000000 0.000000 2.447461 2.787590 1.621941 -0.256231 3.077654 1.086440 1.612141 -6.807595 4.127156 0.000000 0.000000 0.000000 -1.604054 2.201422 0.214578 0.487234 2.485174 -0.088484 -1.409196 -7.263408 -4.021586 0.000000 0.000000 0.000000 -3.538192 -4.474674 -1.807541 -3.583559 -1.717401 0.310025 -3.329887 1.015715 -1.403678 0.000000 0.000000 0.000000 2.164542 -5.594467 -0.551949 2.323739 -1.494305 1.043592 2.594447 2.265371 0.722342 0.000000 0.000000 0.000000 
-2717.010254 820.492432 1063.828979 -0.162205 4.978316 -0.276789 0.602687 -2.364550 -0.601801 0.678500 0.400704 0.160573 0.659111 -0.451336 -0.097080 -2.053963 -12.530883 5.415166 0.000000 0.000000 0.000000 2.438882 2.825364 1.598652 -0.292521 3.113943 0.929519 1.593061 -6.745683 4.061651 0.000000 0.000000 0.000000 -1.593161 2.228167 0.160976 0.508369 2.511967 0.029835 -1.382783 -7.156437 -3.927390 0.000000 0.000000 0.000000 -3.562511 -4.488539 -1.796555 -3.598191 -1.474982 0.291326 -3.353963 0.916180 -1.420152 0.000000 0.000000 0.000000 2.141415 -5.509260 -0.538950 2.296310 -1.463273 1.055861 2.564604 2.237688 0.714367 0.000000 0.000000 0.000000 
-2716.888672 820.121094 1063.727051 -0.101568 4.895816 -0.267205 0.596159 -2.356679 -0.604284 0.672415 0.399795 0.168734 0.652012 -0.448068 -0.103419 -2.042966 -12.528255 5.388642 0.000000 0.000000 0.000000 2.425897 2.867362 1.580293 -0.328518 3.153852 0.772418 1.569862 -6.664895 3.984800 0.000000 0.000000 0.000000 -1.585819 2.257233 0.112079 0.532209 2.541848 0.162956 -1.349889 -7.029102 -3.809617 0.000000 0.000000 0.000000 -3.585818 -4.508880 -1.787916 -3.612432 -1.236646 0.282584 -3.376863 0.816330 -1.436127 0.000000 0.000000 0.000000 2.120193 -5.434139 -0.520911 2.272647 -1.426831 1.062262 2.537285 2.205330 0.708441 0.000000 0.000000 0.000000 
-2716.754395 819.712646 1063.629028 -0.045171 4.820086 -0.258555 0.588333 -2.365057 -0.606537 0.664890 0.401343 0.173687 0.643885 -0.447124 -0.106817 -2.031444 -12.518670 5.361094 0.000000 0.000000 0.000000 2.413077 2.911099 1.566232 -0.361404 3.195397 0.624815 1.540565 -6.554996 3.891430 0.000000 0.000000 0.000000 -1.576514 2.294272 0.066457 0.558903 2.579749 0.308455 -1.312265 -6.881611 -3.677506 0.000000 0.000000 0.000000 -3.607596 -4.522774 -1.769090 -3.624839 -1.023724 0.261616 -3.398660 0.722935 -1.451225 0.000000 0.000000 0.000000 2.100704 -5.366730 -0.499295 2.251856 -1.387835 1.066429 2.512310 2.171446 0.703865 0.000000 0.000000 0.000000 
